<svg xmlns="http://www.w3.org/2000/svg" version="1.1" xmlns:xlink="http://www.w3.org/1999/xlink" xmlns:svgjs="http://svgjs.dev/svgjs" width="2000" height="1247" viewBox="0 0 2000 1247"><g transform="matrix(1,0,0,1,-1.2121212121212466,226.9764801864801)"><svg viewBox="0 0 396 247" data-background-color="#ffffff" preserveAspectRatio="xMidYMid meet" height="1247" width="2000" xmlns="http://www.w3.org/2000/svg" xmlns:xlink="http://www.w3.org/1999/xlink"><g id="tight-bounds" transform="matrix(1,0,0,1,0.2400000000000091,-0.09999999999999432)"><svg viewBox="0 0 395.52 247.2" height="247.2" width="395.52"><g><svg></svg></g><g><svg viewBox="0 0 395.52 247.2" height="247.2" width="395.52"><g transform="matrix(1,0,0,1,75.54432,73.44697637228981)"><svg viewBox="0 0 244.43135999999998 100.30604725542038" height="100.30604725542038" width="244.43135999999998"><g><svg viewBox="0 0 244.43135999999998 100.30604725542038" height="100.30604725542038" width="244.43135999999998"><g><svg viewBox="0 0 244.43135999999998 100.30604725542038" height="100.30604725542038" width="244.43135999999998"><g><svg viewBox="0 0 244.43135999999998 100.30604725542038" height="100.30604725542038" width="244.43135999999998"><g id="textblocktransform"><svg viewBox="0 0 244.43135999999998 100.30604725542038" height="100.30604725542038" width="244.43135999999998" id="textblock"><g><svg viewBox="0 0 244.43135999999998 100.30604725542038" height="100.30604725542038" width="244.43135999999998"><g transform="matrix(1,0,0,1,0,0)"><svg width="244.43135999999998" viewBox="0.800000011920929 -38.150001525878906 94.53999328613281 38.80000305175781" height="100.30604725542038" data-palette-color="#31c48d"><path d="M6.85-32L10.15-32Q9.8-30.25 9.53-28.43 9.25-26.6 9.15-24.85L9.15-24.85 15.55-24.85 14.7-21.55 9.15-21.55 9.15-6.1Q9.15-5.2 9.35-4.48 9.55-3.75 10.1-3.33 10.65-2.9 11.7-2.9L11.7-2.9Q12.5-2.9 13.3-3.05 14.1-3.2 14.85-3.4L14.85-3.4 15.55-0.4Q14.3-0.05 13.08 0.25 11.85 0.55 10.4 0.55L10.4 0.55Q7.2 0.55 5.9-1.13 4.6-2.8 4.6-5.9L4.6-5.9 4.6-21.55 0.8-21.55 0.8-24.2Q2.8-24.25 4-25.53 5.2-26.8 5.85-28.6 6.5-30.4 6.85-32L6.85-32ZM29 0.65L29 0.65Q25.35 0.65 22.82-1.15 20.3-2.95 19.02-5.9 17.75-8.85 17.75-12.25L17.75-12.25Q17.75-15.65 19.12-18.68 20.5-21.7 23.1-23.58 25.7-25.45 29.3-25.45L29.3-25.45Q33-25.45 35.52-23.68 38.05-21.9 39.32-18.95 40.6-16 40.6-12.55L40.6-12.55Q40.6-9.1 39.25-6.1 37.9-3.1 35.3-1.23 32.7 0.65 29 0.65ZM29.05-2.7L29.05-2.7Q30.95-2.7 32.22-3.6 33.5-4.5 34.27-5.98 35.05-7.45 35.37-9.15 35.7-10.85 35.7-12.4L35.7-12.4Q35.7-14 35.42-15.7 35.15-17.4 34.42-18.85 33.7-20.3 32.42-21.2 31.15-22.1 29.25-22.1L29.25-22.1Q27.35-22.1 26.07-21.18 24.8-20.25 24.05-18.78 23.3-17.3 22.95-15.63 22.6-13.95 22.6-12.4L22.6-12.4Q22.6-10.9 22.92-9.2 23.25-7.5 23.97-6.03 24.7-4.55 25.95-3.63 27.2-2.7 29.05-2.7ZM55.9-25.4L55.9-25.4Q57.5-25.4 59.17-24.9 60.85-24.4 62.05-23.3L62.05-23.3Q62-24.05 61.97-24.73 61.95-25.4 61.95-26.05L61.95-26.05 61.95-35.25 61.25-38.15 66.45-38.15 66.45-7.15Q66.45-6.1 66.59-4.8 66.75-3.5 67.09-2.27 67.45-1.05 67.95-0.1L67.95-0.1 63.2 0.45Q62.9-0.35 62.65-1.2 62.4-2.05 62.3-2.85L62.3-2.85Q61.05-1.2 59.07-0.28 57.1 0.65 55.05 0.65L55.05 0.65Q52.45 0.65 50.47-0.45 48.5-1.55 47.22-3.43 45.95-5.3 45.3-7.58 44.65-9.85 44.65-12.2L44.65-12.2Q44.65-15.65 45.9-18.68 47.15-21.7 49.62-23.55 52.1-25.4 55.9-25.4ZM56.05-21.85L56.05-21.85Q54.2-21.85 52.92-21 51.65-20.15 50.9-18.75 50.15-17.35 49.82-15.73 49.5-14.1 49.5-12.5L49.5-12.5Q49.5-10.85 49.87-9.22 50.25-7.6 51.02-6.23 51.8-4.85 53.12-4.03 54.45-3.2 56.4-3.2L56.4-3.2Q58.05-3.2 59.5-4.15 60.95-5.1 61.95-6.35L61.95-6.35 61.95-14.7Q61.95-16.6 61.37-18.23 60.8-19.85 59.5-20.85 58.2-21.85 56.05-21.85ZM83.74 0.65L83.74 0.65Q80.09 0.65 77.57-1.15 75.04-2.95 73.77-5.9 72.49-8.85 72.49-12.25L72.49-12.25Q72.49-15.65 73.87-18.68 75.24-21.7 77.84-23.58 80.44-25.45 84.04-25.45L84.04-25.45Q87.74-25.45 90.27-23.68 92.79-21.9 94.07-18.95 95.34-16 95.34-12.55L95.34-12.55Q95.34-9.1 93.99-6.1 92.64-3.1 90.04-1.23 87.44 0.65 83.74 0.65ZM83.79-2.7L83.79-2.7Q85.69-2.7 86.97-3.6 88.24-4.5 89.02-5.98 89.79-7.45 90.12-9.15 90.44-10.85 90.44-12.4L90.44-12.4Q90.44-14 90.17-15.7 89.89-17.4 89.17-18.85 88.44-20.3 87.17-21.2 85.89-22.1 83.99-22.1L83.99-22.1Q82.09-22.1 80.82-21.18 79.54-20.25 78.79-18.78 78.04-17.3 77.69-15.63 77.34-13.95 77.34-12.4L77.34-12.4Q77.34-10.9 77.67-9.2 77.99-7.5 78.72-6.03 79.44-4.55 80.69-3.63 81.94-2.7 83.79-2.7Z" opacity="1" transform="matrix(1,0,0,1,0,0)" fill="#31c48d" class="wordmark-text-0" data-fill-palette-color="primary" id="text-0"></path></svg></g></svg></g></svg></g></svg></g><g></g></svg></g></svg></g></svg></g><g><path d="M94.131 58.81A122.216 122.216 0 0 1 301.389 58.81L295.797 58.81A116.624 116.624 0 0 0 99.723 58.81L94.131 58.81M94.131 188.39A122.216 122.216 0 0 0 301.389 188.39L295.797 188.39A116.624 116.624 0 0 1 99.723 188.39L94.131 188.39" fill="#31c48d" stroke="transparent" data-fill-palette-color="tertiary"></path></g></svg></g><defs></defs></svg><rect width="395.52" height="247.2" fill="none" stroke="none" visibility="hidden"></rect></g></svg></g></svg>